<mxfile host="app.diagrams.net" agent="Mozilla/5.0 (Windows NT 10.0; Win64; x64) AppleWebKit/537.36 (KHTML, like Gecko) Chrome/136.0.0.0 Safari/537.36" version="27.0.6">
  <diagram name="Seite-1" id="lRX0ZuFQ-yky47AK429H">
    <mxGraphModel dx="1426" dy="1920" grid="1" gridSize="10" guides="1" tooltips="1" connect="1" arrows="1" fold="1" page="1" pageScale="1" pageWidth="827" pageHeight="1169" math="0" shadow="0">
      <root>
        <mxCell id="0" />
        <mxCell id="1" parent="0" />
        <mxCell id="jCJDcGPf401QhtuXJZfl-4" value="WPS Import Logs" style="swimlane;fontStyle=0;childLayout=stackLayout;horizontal=1;startSize=30;horizontalStack=0;resizeParent=1;resizeParentMax=0;resizeLast=0;collapsible=1;marginBottom=0;whiteSpace=wrap;html=1;" vertex="1" parent="1">
          <mxGeometry x="40" y="40" width="320" height="90" as="geometry" />
        </mxCell>
        <mxCell id="jCJDcGPf401QhtuXJZfl-5" value="Nahetal" style="text;strokeColor=none;fillColor=none;align=left;verticalAlign=middle;spacingLeft=4;spacingRight=4;overflow=hidden;points=[[0,0.5],[1,0.5]];portConstraint=eastwest;rotatable=0;whiteSpace=wrap;html=1;" vertex="1" parent="jCJDcGPf401QhtuXJZfl-4">
          <mxGeometry y="30" width="320" height="30" as="geometry" />
        </mxCell>
        <mxCell id="jCJDcGPf401QhtuXJZfl-6" value="Scherer-Gruppe" style="text;strokeColor=none;fillColor=none;align=left;verticalAlign=middle;spacingLeft=4;spacingRight=4;overflow=hidden;points=[[0,0.5],[1,0.5]];portConstraint=eastwest;rotatable=0;whiteSpace=wrap;html=1;" vertex="1" parent="jCJDcGPf401QhtuXJZfl-4">
          <mxGeometry y="60" width="320" height="30" as="geometry" />
        </mxCell>
        <mxCell id="jCJDcGPf401QhtuXJZfl-8" value="" style="strokeWidth=2;html=1;shape=mxgraph.flowchart.start_2;whiteSpace=wrap;fillColor=#d5e8d4;strokeColor=#82b366;" vertex="1" parent="1">
          <mxGeometry x="370" y="40" width="20" height="20" as="geometry" />
        </mxCell>
        <mxCell id="jCJDcGPf401QhtuXJZfl-9" value="" style="strokeWidth=2;html=1;shape=mxgraph.flowchart.start_2;whiteSpace=wrap;fillColor=#d5e8d4;strokeColor=#82b366;" vertex="1" parent="1">
          <mxGeometry x="375" y="80" width="10" height="10" as="geometry" />
        </mxCell>
        <mxCell id="jCJDcGPf401QhtuXJZfl-10" value="" style="strokeWidth=2;html=1;shape=mxgraph.flowchart.start_2;whiteSpace=wrap;fillColor=#d5e8d4;strokeColor=#82b366;" vertex="1" parent="1">
          <mxGeometry x="375" y="110" width="10" height="10" as="geometry" />
        </mxCell>
        <mxCell id="jCJDcGPf401QhtuXJZfl-12" value="EVA" style="swimlane;fontStyle=0;childLayout=stackLayout;horizontal=1;startSize=30;horizontalStack=0;resizeParent=1;resizeParentMax=0;resizeLast=0;collapsible=1;marginBottom=0;whiteSpace=wrap;html=1;" vertex="1" parent="1">
          <mxGeometry x="40" y="160" width="320" height="90" as="geometry" />
        </mxCell>
        <mxCell id="jCJDcGPf401QhtuXJZfl-13" value="Nahetal" style="text;strokeColor=none;fillColor=none;align=left;verticalAlign=middle;spacingLeft=4;spacingRight=4;overflow=hidden;points=[[0,0.5],[1,0.5]];portConstraint=eastwest;rotatable=0;whiteSpace=wrap;html=1;" vertex="1" parent="jCJDcGPf401QhtuXJZfl-12">
          <mxGeometry y="30" width="320" height="30" as="geometry" />
        </mxCell>
        <mxCell id="jCJDcGPf401QhtuXJZfl-14" value="Scherer-Gruppe" style="text;strokeColor=none;fillColor=none;align=left;verticalAlign=middle;spacingLeft=4;spacingRight=4;overflow=hidden;points=[[0,0.5],[1,0.5]];portConstraint=eastwest;rotatable=0;whiteSpace=wrap;html=1;" vertex="1" parent="jCJDcGPf401QhtuXJZfl-12">
          <mxGeometry y="60" width="320" height="30" as="geometry" />
        </mxCell>
        <mxCell id="jCJDcGPf401QhtuXJZfl-15" value="" style="strokeWidth=2;html=1;shape=mxgraph.flowchart.start_2;whiteSpace=wrap;fillColor=#d5e8d4;strokeColor=#82b366;" vertex="1" parent="1">
          <mxGeometry x="370" y="170" width="20" height="20" as="geometry" />
        </mxCell>
        <mxCell id="jCJDcGPf401QhtuXJZfl-16" value="" style="strokeWidth=2;html=1;shape=mxgraph.flowchart.start_2;whiteSpace=wrap;fillColor=#d5e8d4;strokeColor=#82b366;" vertex="1" parent="1">
          <mxGeometry x="375" y="210" width="10" height="10" as="geometry" />
        </mxCell>
        <mxCell id="jCJDcGPf401QhtuXJZfl-17" value="" style="strokeWidth=2;html=1;shape=mxgraph.flowchart.start_2;whiteSpace=wrap;fillColor=#d5e8d4;strokeColor=#82b366;" vertex="1" parent="1">
          <mxGeometry x="375" y="230" width="10" height="10" as="geometry" />
        </mxCell>
        <mxCell id="jCJDcGPf401QhtuXJZfl-18" value="&lt;font style=&quot;font-size: 14px;&quot;&gt;EVA - LogBook, Spacecheck, DUMP hier vereinen&lt;/font&gt;" style="text;html=1;align=center;verticalAlign=middle;whiteSpace=wrap;rounded=0;" vertex="1" parent="1">
          <mxGeometry x="460" y="200" width="180" height="30" as="geometry" />
        </mxCell>
        <mxCell id="jCJDcGPf401QhtuXJZfl-19" value="EVA Einträge Excel" style="swimlane;fontStyle=0;childLayout=stackLayout;horizontal=1;startSize=30;horizontalStack=0;resizeParent=1;resizeParentMax=0;resizeLast=0;collapsible=1;marginBottom=0;whiteSpace=wrap;html=1;" vertex="1" parent="1">
          <mxGeometry x="40" y="320" width="320" height="120" as="geometry" />
        </mxCell>
        <mxCell id="jCJDcGPf401QhtuXJZfl-20" value="Param 1" style="text;strokeColor=none;fillColor=none;align=left;verticalAlign=middle;spacingLeft=4;spacingRight=4;overflow=hidden;points=[[0,0.5],[1,0.5]];portConstraint=eastwest;rotatable=0;whiteSpace=wrap;html=1;" vertex="1" parent="jCJDcGPf401QhtuXJZfl-19">
          <mxGeometry y="30" width="320" height="30" as="geometry" />
        </mxCell>
        <mxCell id="jCJDcGPf401QhtuXJZfl-21" value="Param 2" style="text;strokeColor=none;fillColor=none;align=left;verticalAlign=middle;spacingLeft=4;spacingRight=4;overflow=hidden;points=[[0,0.5],[1,0.5]];portConstraint=eastwest;rotatable=0;whiteSpace=wrap;html=1;" vertex="1" parent="jCJDcGPf401QhtuXJZfl-19">
          <mxGeometry y="60" width="320" height="30" as="geometry" />
        </mxCell>
        <mxCell id="jCJDcGPf401QhtuXJZfl-22" value="Param 3" style="text;strokeColor=none;fillColor=none;align=left;verticalAlign=middle;spacingLeft=4;spacingRight=4;overflow=hidden;points=[[0,0.5],[1,0.5]];portConstraint=eastwest;rotatable=0;whiteSpace=wrap;html=1;" vertex="1" parent="jCJDcGPf401QhtuXJZfl-19">
          <mxGeometry y="90" width="320" height="30" as="geometry" />
        </mxCell>
        <mxCell id="jCJDcGPf401QhtuXJZfl-23" value="&lt;font style=&quot;font-size: 16px;&quot;&gt;Einträge durchlaufen, prüfen ob alles hinterlegt ist.&amp;nbsp;&lt;br&gt;Es muss geprüft werden, ob bestimmte Einträge exakt vorhanden sind. Prüfung ggf. auch mehrere Einträge in einer Datei&lt;/font&gt;&lt;div&gt;&lt;span style=&quot;font-size: 16px;&quot;&gt;Sollte ein Fehler auftreten, soll direkt auf die richtige Zeile hingewiesen werden&lt;/span&gt;&lt;/div&gt;" style="text;html=1;align=center;verticalAlign=middle;whiteSpace=wrap;rounded=0;" vertex="1" parent="1">
          <mxGeometry x="410" y="320" width="390" height="120" as="geometry" />
        </mxCell>
        <mxCell id="jCJDcGPf401QhtuXJZfl-24" value="GW-Plus Meldung" style="swimlane;fontStyle=0;childLayout=stackLayout;horizontal=1;startSize=30;horizontalStack=0;resizeParent=1;resizeParentMax=0;resizeLast=0;collapsible=1;marginBottom=0;whiteSpace=wrap;html=1;" vertex="1" parent="1">
          <mxGeometry x="40" y="480" width="320" height="90" as="geometry" />
        </mxCell>
        <mxCell id="jCJDcGPf401QhtuXJZfl-25" value="Nahetal" style="text;strokeColor=none;fillColor=none;align=left;verticalAlign=middle;spacingLeft=4;spacingRight=4;overflow=hidden;points=[[0,0.5],[1,0.5]];portConstraint=eastwest;rotatable=0;whiteSpace=wrap;html=1;" vertex="1" parent="jCJDcGPf401QhtuXJZfl-24">
          <mxGeometry y="30" width="320" height="30" as="geometry" />
        </mxCell>
        <mxCell id="jCJDcGPf401QhtuXJZfl-26" value="Scherer-Gruppe" style="text;strokeColor=none;fillColor=none;align=left;verticalAlign=middle;spacingLeft=4;spacingRight=4;overflow=hidden;points=[[0,0.5],[1,0.5]];portConstraint=eastwest;rotatable=0;whiteSpace=wrap;html=1;" vertex="1" parent="jCJDcGPf401QhtuXJZfl-24">
          <mxGeometry y="60" width="320" height="30" as="geometry" />
        </mxCell>
        <mxCell id="jCJDcGPf401QhtuXJZfl-27" value="&lt;font style=&quot;font-size: 16px;&quot;&gt;Prüfung - Alle Einträge haben aktuelles Datum (Kriterien ausarbeiten bei Feiertagen etc.)&lt;/font&gt;" style="text;html=1;align=center;verticalAlign=middle;whiteSpace=wrap;rounded=0;" vertex="1" parent="1">
          <mxGeometry x="420" y="480" width="380" height="80" as="geometry" />
        </mxCell>
        <mxCell id="jCJDcGPf401QhtuXJZfl-28" value="ggf. Email Benachrichtigungen bei Fehlern oder eine tägliche Zusammenfassung" style="shape=process;whiteSpace=wrap;html=1;backgroundOutline=1;" vertex="1" parent="1">
          <mxGeometry x="530" y="620" width="240" height="60" as="geometry" />
        </mxCell>
        <mxCell id="jCJDcGPf401QhtuXJZfl-31" value="&lt;h1 style=&quot;margin-top: 0px;&quot;&gt;Anforderungen / bzw. Ideen&lt;/h1&gt;&lt;p&gt;&lt;/p&gt;&lt;ul&gt;&lt;li&gt;Soll übersichtlich und kompakt sein, relevante sollten direkt sichtbar sein.&lt;/li&gt;&lt;li&gt;Übersicht bei Fehlern&lt;/li&gt;&lt;ul&gt;&lt;li&gt;ggf. direkt ein Bearbeitungsfeld zur Korrektur, ohne direkt in die Datei reinzugehen (möglich?)&lt;/li&gt;&lt;/ul&gt;&lt;li&gt;&lt;span style=&quot;background-color: transparent; color: light-dark(rgb(0, 0, 0), rgb(255, 255, 255));&quot;&gt;Benachrichtigung bei Fehlern - ggf. an BOT-Operator Postfach&lt;/span&gt;&lt;/li&gt;&lt;li&gt;&lt;span style=&quot;background-color: transparent; color: light-dark(rgb(0, 0, 0), rgb(255, 255, 255));&quot;&gt;Skalierbar für weitere Abfragen&lt;/span&gt;&lt;/li&gt;&lt;li&gt;&lt;span style=&quot;background-color: transparent; color: light-dark(rgb(0, 0, 0), rgb(255, 255, 255));&quot;&gt;Geschwindigkeit sollte im Mittelpunkt stehen (keine 30 Minuten Wartezeit)&lt;/span&gt;&lt;/li&gt;&lt;li&gt;&lt;span style=&quot;background-color: transparent; color: light-dark(rgb(0, 0, 0), rgb(255, 255, 255));&quot;&gt;Menüs&lt;/span&gt;&lt;/li&gt;&lt;ul&gt;&lt;li&gt;Dropdown Menu mit grünen Status-Check&lt;/li&gt;&lt;ul&gt;&lt;li&gt;Aufklappbar mit mehr Infos und Dienste&amp;nbsp;&lt;/li&gt;&lt;/ul&gt;&lt;/ul&gt;&lt;/ul&gt;&lt;p&gt;&lt;/p&gt;&lt;p&gt;&lt;br&gt;&lt;/p&gt;" style="text;html=1;whiteSpace=wrap;overflow=hidden;rounded=0;fontSize=16;" vertex="1" parent="1">
          <mxGeometry x="40" y="-230" width="760" height="250" as="geometry" />
        </mxCell>
      </root>
    </mxGraphModel>
  </diagram>
</mxfile>
